<?xml version="1.0" encoding="UTF-8" standalone="no"?>
<!-- Created with Inkscape (http://www.inkscape.org/) -->

<svg
   width="173.84583mm"
   height="51.630791mm"
   viewBox="0 0 173.84583 51.630791"
   version="1.1"
   id="svg5"
   inkscape:version="1.1.1 (3bf5ae0d25, 2021-09-20)"
   sodipodi:docname="drawing.svg"
   xmlns:inkscape="http://www.inkscape.org/namespaces/inkscape"
   xmlns:sodipodi="http://sodipodi.sourceforge.net/DTD/sodipodi-0.dtd"
   xmlns="http://www.w3.org/2000/svg"
   xmlns:svg="http://www.w3.org/2000/svg">
  <sodipodi:namedview
     id="namedview7"
     pagecolor="#ffffff"
     bordercolor="#666666"
     borderopacity="1.0"
     inkscape:pageshadow="2"
     inkscape:pageopacity="0.0"
     inkscape:pagecheckerboard="0"
     inkscape:document-units="mm"
     showgrid="false"
     showguides="false"
     inkscape:zoom="1.4142136"
     inkscape:cx="284.61048"
     inkscape:cy="29.698485"
     inkscape:window-width="1920"
     inkscape:window-height="1112"
     inkscape:window-x="0"
     inkscape:window-y="0"
     inkscape:window-maximized="1"
     inkscape:current-layer="layer1" />
  <defs
     id="defs2" />
  <g
     inkscape:label="Layer 1"
     inkscape:groupmode="layer"
     id="layer1"
     transform="translate(-13.80611,-6.3665587)">
    <g
       id="g75077"
       transform="translate(0,-0.6189468)">
      <path
         style="fill:none;stroke:#204a87;stroke-width:0.79375;stroke-miterlimit:4;stroke-dasharray:none;stroke-opacity:1"
         d="m 84.203397,26.106692 c 1.43481,-1.371065 2.46213,-2.184221 4.03585,-3.194495 5.43264,-3.487572 11.60996,-4.723656 18.003263,-3.602458 1.46909,0.257636 3.07005,0.725883 4.63767,1.356427 0.37776,0.151941 0.73644,0.296221 0.79707,0.320622 l 0.11028,0.04437 0.11028,-0.285331 c 0.14828,-0.383737 1.91364,-4.591268 1.93544,-4.612877 0.009,-0.0095 0.0994,0.124504 0.19982,0.29753 0.10044,0.17303 0.24564,0.421324 0.32266,0.551766 0.077,0.130441 0.22707,0.39698 0.33346,0.592308 0.10641,0.195326 0.29116,0.519742 0.4106,0.720924 0.11952,0.201183 0.2442,0.4159 0.27724,0.477149 0.21983,0.407615 0.35154,0.640801 0.79208,1.40236 0.0483,0.08363 0.18136,0.320971 0.2955,0.527415 0.24576,0.444511 0.44169,0.78452 0.69399,1.20427 0.10164,0.169159 0.18998,0.329111 0.19626,0.355446 0.0119,0.04998 0.42891,0.777642 0.86881,1.515989 0.0422,0.07091 0.11326,0.200503 0.15773,0.287976 0.0446,0.08747 0.16587,0.305549 0.2697,0.484619 0.10387,0.17907 0.22822,0.394147 0.27643,0.47795 0.13308,0.231264 0.69666,1.230069 0.77924,1.380916 0.0399,0.07312 0.15033,0.263713 0.24511,0.423547 0.0948,0.159833 0.15767,0.305124 0.13979,0.322867 -0.0179,0.01774 -1.26591,0.368097 -2.77334,0.778562 -1.50745,0.410458 -2.77534,0.758213 -2.81754,0.772775 -0.0422,0.01462 -0.17675,0.0504 -0.29899,0.0796 -0.12221,0.02923 -0.29326,0.07505 -0.38004,0.101874 -0.0867,0.02676 -0.25736,0.07301 -0.37907,0.10279 -0.12175,0.02978 -0.31485,0.08437 -0.42917,0.12149 -0.1143,0.03706 -0.30747,0.09171 -0.42919,0.12149 -0.12175,0.02976 -0.29225,0.0761 -0.37906,0.10279 -0.0867,0.02676 -0.25749,0.07291 -0.37935,0.10245 -0.12191,0.02962 -0.2921,0.07625 -0.37839,0.103455 -0.0863,0.02728 -0.19564,0.05731 -0.24303,0.06673 -0.0474,0.0095 -0.83478,0.223592 -1.74978,0.475806 -0.91501,0.252262 -1.65866,0.438034 -1.65256,0.412795 0.006,-0.02523 0.27506,-0.676276 0.59772,-1.44677 0.32266,-0.770488 0.74599,-1.812055 0.94071,-2.314589 0.19472,-0.502532 0.39139,-1.007371 0.43703,-1.121857 l 0.083,-0.208166 -0.43476,-0.203868 c -1.20986,-0.567329 -2.82314,-1.145889 -4.15531,-1.490213 -0.9683,-0.250263 -1.31236,-0.305376 -2.29994,-0.368393 -4.570693,-0.291655 -9.126713,1.018632 -13.057743,3.755342 -1.02931,0.716583 -1.58757,1.178413 -2.64084,2.184652 l -1.00963,0.96457 -1.56933,-1.555425 -1.56932,-1.555421 z"
         id="path3801"
         inkscape:connector-curvature="0" />
      <path
         style="fill:none;stroke:#204a87;stroke-width:0.79375;stroke-miterlimit:4;stroke-dasharray:none;stroke-opacity:1"
         d="m 118.84302,39.151656 c -1.43481,1.371065 -2.46213,2.184221 -4.03585,3.194495 -5.43264,3.487572 -11.60996,4.723656 -18.003263,3.602458 -1.46909,-0.257636 -3.07005,-0.725883 -4.63767,-1.356427 -0.37776,-0.151941 -0.73644,-0.296221 -0.79707,-0.320622 l -0.11028,-0.04437 -0.11028,0.285331 c -0.14828,0.383737 -1.91364,4.591268 -1.93544,4.612877 -0.009,0.0095 -0.0994,-0.124504 -0.19982,-0.29753 -0.10044,-0.17303 -0.24564,-0.421324 -0.32266,-0.551766 -0.077,-0.130441 -0.22707,-0.39698 -0.33346,-0.592308 -0.10641,-0.195326 -0.29116,-0.519742 -0.4106,-0.720924 -0.11952,-0.201183 -0.2442,-0.4159 -0.27724,-0.477149 -0.21983,-0.407615 -0.35154,-0.640801 -0.79208,-1.40236 -0.0483,-0.08363 -0.18136,-0.320971 -0.2955,-0.527415 -0.24576,-0.444511 -0.44169,-0.78452 -0.69399,-1.20427 -0.10164,-0.169159 -0.18998,-0.329111 -0.19626,-0.355446 -0.0119,-0.04998 -0.42891,-0.777642 -0.86881,-1.515989 -0.0422,-0.07091 -0.11326,-0.200503 -0.15773,-0.287976 -0.0446,-0.08747 -0.16587,-0.305549 -0.2697,-0.484619 -0.10387,-0.17907 -0.22822,-0.394147 -0.27643,-0.47795 -0.13308,-0.231264 -0.69666,-1.230069 -0.77924,-1.380916 -0.0399,-0.07312 -0.15033,-0.263713 -0.24511,-0.423547 -0.0948,-0.159833 -0.15767,-0.305124 -0.13979,-0.322867 0.0179,-0.01774 1.26591,-0.368097 2.77334,-0.778562 1.50745,-0.410458 2.77534,-0.758213 2.81754,-0.772775 0.0422,-0.01462 0.17675,-0.0504 0.29899,-0.0796 0.12221,-0.02923 0.29326,-0.07505 0.38004,-0.101874 0.0867,-0.02676 0.25736,-0.07301 0.37907,-0.10279 0.12175,-0.02978 0.31485,-0.08437 0.42917,-0.12149 0.1143,-0.03706 0.30747,-0.09171 0.42919,-0.12149 0.12175,-0.02976 0.29225,-0.0761 0.37906,-0.10279 0.0867,-0.02676 0.25749,-0.07291 0.37935,-0.10245 0.12191,-0.02962 0.2921,-0.07625 0.37839,-0.103455 0.0863,-0.02728 0.19564,-0.05731 0.24303,-0.06673 0.0474,-0.0095 0.83478,-0.223592 1.74978,-0.475806 0.91501,-0.252262 1.65866,-0.438034 1.65256,-0.412795 -0.006,0.02523 -0.27506,0.676276 -0.59772,1.44677 -0.32266,0.770488 -0.74599,1.812055 -0.94071,2.314589 -0.19472,0.502532 -0.39139,1.007371 -0.43703,1.121857 l -0.083,0.208166 0.43476,0.203868 c 1.20986,0.567329 2.82314,1.145889 4.15531,1.490213 0.9683,0.250263 1.31236,0.305376 2.299943,0.368393 4.57069,0.291655 9.12671,-1.018632 13.05774,-3.755342 1.02931,-0.716583 1.58757,-1.178413 2.64084,-2.184652 l 1.00963,-0.96457 1.56933,1.555425 1.56932,1.555421 z"
         id="path12382"
         inkscape:connector-curvature="0" />
    </g>
    <g
       id="g75062"
       transform="translate(0,-0.8247181)">
      <path
         style="fill:none;stroke:#204a87;stroke-width:0.718168;stroke-miterlimit:4;stroke-dasharray:none;stroke-opacity:1"
         d="m 52.112079,14.838421 c -2.06206,0.206318 -3.96946,0.806513 -5.52746,1.744319 -0.22339,0.131294 -0.73891,0.520483 -1.15705,0.858093 l -0.75608,0.623641 -0.33222,-0.206317 c -0.79046,-0.482971 -2.130797,-0.933118 -3.396672,-1.139434 -1.1685,-0.187562 -1.592367,-0.215697 -3.236286,-0.215697 -1.380433,0 -1.729838,0.01876 -2.491654,0.112537 -2.812418,0.3423 -5.011947,1.111301 -6.386653,2.231979 -0.624345,0.506416 -1.008117,0.994075 -1.265875,1.603649 -0.103103,0.243829 -0.19475,0.454835 -0.206205,0.459524 -0.01146,0.0094 -0.240574,-0.01406 -0.504059,-0.05626 -0.704537,-0.107848 -2.371367,-0.107848 -3.121727,0.0047 -2.125066,0.314164 -4.026742,1.130055 -5.475911,2.353892 -1.105493,0.937806 -1.775662,1.93188 -2.056331,3.066626 -0.10883,0.426702 -0.120286,0.595507 -0.09737,1.266037 0.0401,1.045655 0.274942,1.758387 0.905015,2.71026 l 0.297853,0.450148 -0.25203,0.168804 c -1.517904,0.998763 -2.503109,2.311692 -2.80669,3.751223 -0.09165,0.43608 -0.09737,1.364509 -0.0057,1.809966 0.177566,0.890916 0.687353,1.880301 1.317426,2.574278 1.036757,1.134745 2.692132,1.992838 4.542257,2.344514 l 0.435323,0.0844 0.0401,0.445459 c 0.234845,2.56021 2.755139,4.543669 6.529851,5.125109 0.80764,0.126604 2.760867,0.173494 3.711705,0.09378 1.00239,-0.08909 2.583301,-0.328231 3.259198,-0.501725 0.07446,-0.01407 0.154655,0.06565 0.326493,0.318853 1.248691,1.856856 3.912183,3.418303 6.42102,3.760602 0.681625,0.09378 1.901672,0.09847 2.531752,0.0047 1.95895,-0.276654 3.72889,-1.1113 5.3499,-2.522698 l 0.53842,-0.464214 0.48688,0.398567 c 0.69308,0.567373 1.48926,1.055033 2.37709,1.458288 2.58903,1.172258 5.61911,1.603649 8.13941,1.153502 2.31408,-0.407946 4.12411,-1.556757 5.17805,-3.282321 0.16612,-0.271963 0.3265,-0.557994 0.36086,-0.637708 l 0.063,-0.145359 0.50406,0.0844 c 2.33127,0.389189 5.18951,0.07971 7.25157,-0.787757 2.13652,-0.890916 3.47686,-2.311693 3.86063,-4.098213 0.1833,-0.848714 0.10311,-2.053795 -0.2062,-3.04318 l -0.10883,-0.346988 0.21193,-0.145361 c 1.71838,-1.139433 3.116,-3.141648 3.51123,-5.045395 0.166108,-0.787757 0.131738,-1.725563 -0.0917,-2.386717 -0.54415,-1.636471 -1.99905,-2.841552 -4.26731,-3.530838 -0.30358,-0.09378 -0.72172,-0.201629 -0.93939,-0.248519 -0.34367,-0.07033 -0.38377,-0.08909 -0.35513,-0.178183 0.0172,-0.05627 0.10883,-0.3423 0.20621,-0.637709 0.32076,-0.947184 0.30358,-2.035039 -0.0401,-2.930643 -0.9852,-2.578967 -4.38187,-4.163859 -8.66637,-4.041945 -1.03676,0.03282 -2.13652,0.150051 -3.07018,0.337611 -0.33222,0.06565 -0.61289,0.117226 -0.63007,0.117226 -0.0115,0 -0.0229,-0.03751 -0.0229,-0.0844 0,-0.04689 -0.0516,-0.225073 -0.12029,-0.389189 -0.85919,-2.185088 -3.62006,-3.830937 -7.29739,-4.360798 -0.779,-0.112537 -2.72078,-0.159427 -3.46541,-0.08909 z"
         id="path4" />
      <text
         xml:space="preserve"
         style="font-style:normal;font-variant:normal;font-weight:normal;font-stretch:normal;font-size:5.29167px;line-height:1.25;font-family:'Nimbus Roman';-inkscape-font-specification:'Nimbus Roman, ';text-align:center;letter-spacing:0px;word-spacing:0px;text-anchor:middle;fill:#204a87;stroke:#204a87;stroke-width:0.264583"
         x="47.94133"
         y="25.856424"
         id="text14188"><tspan
           sodipodi:role="line"
           style="font-style:normal;font-variant:normal;font-weight:normal;font-stretch:normal;font-size:5.29167px;font-family:'Nimbus Roman';-inkscape-font-specification:'Nimbus Roman, ';text-align:center;text-anchor:middle;fill:#204a87;stroke:#204a87;stroke-width:0.264583"
           x="47.94133"
           y="25.856424"
           id="tspan14190">Datasets</tspan></text>
      <text
         xml:space="preserve"
         style="font-style:normal;font-variant:normal;font-weight:normal;font-stretch:normal;font-size:3.52778px;line-height:1.25;font-family:'Nimbus Roman';-inkscape-font-specification:'Nimbus Roman, ';letter-spacing:0px;word-spacing:0px;fill:#000000;stroke:none;stroke-width:0.264583"
         x="33.860252"
         y="32.421867"
         id="text30214"><tspan
           sodipodi:role="line"
           style="font-style:normal;font-variant:normal;font-weight:normal;font-stretch:normal;font-size:3.52778px;font-family:'Nimbus Roman';-inkscape-font-specification:'Nimbus Roman, ';fill:#000000;stroke:none;stroke-width:0.264583"
           x="33.860252"
           y="32.421867"
           id="tspan30212">- FAIR-Repositories</tspan><tspan
           sodipodi:role="line"
           style="font-style:normal;font-variant:normal;font-weight:normal;font-stretch:normal;font-size:3.52778px;font-family:'Nimbus Roman';-inkscape-font-specification:'Nimbus Roman, ';fill:#000000;stroke:none;stroke-width:0.264583"
           x="33.860252"
           y="36.831593"
           id="tspan30238">- Website</tspan><tspan
           sodipodi:role="line"
           style="font-style:normal;font-variant:normal;font-weight:normal;font-stretch:normal;font-size:3.52778px;font-family:'Nimbus Roman';-inkscape-font-specification:'Nimbus Roman, ';fill:#000000;stroke:none;stroke-width:0.264583"
           x="33.860252"
           y="41.241318"
           id="tspan30240">- Software packages</tspan></text>
    </g>
    <text
       xml:space="preserve"
       style="font-style:normal;font-variant:normal;font-weight:normal;font-stretch:normal;font-size:3.52778px;line-height:1.25;font-family:'Nimbus Roman';-inkscape-font-specification:'Nimbus Roman, ';text-align:center;letter-spacing:0px;word-spacing:0px;text-anchor:middle;fill:#000000;stroke:none;stroke-width:0.264583"
       x="101.11773"
       y="8.7760324"
       id="text30214-3"><tspan
         sodipodi:role="line"
         style="font-style:normal;font-variant:normal;font-weight:normal;font-stretch:normal;font-size:3.52778px;font-family:'Nimbus Roman';-inkscape-font-specification:'Nimbus Roman, ';text-align:center;text-anchor:middle;fill:#000000;stroke:none;stroke-width:0.264583"
         x="101.11773"
         y="8.7760324"
         id="tspan30212-6">Testing conjectures,</tspan><tspan
         sodipodi:role="line"
         style="font-style:normal;font-variant:normal;font-weight:normal;font-stretch:normal;font-size:3.52778px;font-family:'Nimbus Roman';-inkscape-font-specification:'Nimbus Roman, ';text-align:center;text-anchor:middle;fill:#000000;stroke:none;stroke-width:0.264583"
         x="101.11773"
         y="13.185758"
         id="tspan30238-7">Identifying patterns</tspan><tspan
         sodipodi:role="line"
         style="font-style:normal;font-variant:normal;font-weight:normal;font-stretch:normal;font-size:3.52778px;font-family:'Nimbus Roman';-inkscape-font-specification:'Nimbus Roman, ';text-align:center;text-anchor:middle;fill:#000000;stroke:none;stroke-width:0.264583"
         x="101.11773"
         y="17.595482"
         id="tspan30240-5" /></text>
    <g
       id="g75071">
      <rect
         style="fill:none;stroke:#204a87;stroke-width:0.717507;stroke-linecap:round;stroke-linejoin:round;stroke-miterlimit:4;stroke-dasharray:none;stroke-opacity:1;paint-order:stroke fill markers"
         id="rect12406"
         width="59.564522"
         height="28.632923"
         x="127.72865"
         y="17.693766" />
      <text
         xml:space="preserve"
         style="font-style:normal;font-variant:normal;font-weight:normal;font-stretch:normal;font-size:5.29167px;line-height:1.25;font-family:'Nimbus Roman';-inkscape-font-specification:'Nimbus Roman, ';letter-spacing:0px;word-spacing:0px;fill:#204a87;stroke:#204a87;stroke-width:0.264583"
         x="130.16104"
         y="25.856424"
         id="text41158"><tspan
           sodipodi:role="line"
           style="font-style:normal;font-variant:normal;font-weight:normal;font-stretch:normal;font-size:5.29167px;font-family:'Nimbus Roman';-inkscape-font-specification:'Nimbus Roman, ';fill:#204a87;stroke:#204a87;stroke-width:0.264583"
           x="130.16104"
           y="25.856424"
           id="tspan41156">Theoretical Constructions</tspan></text>
      <text
         xml:space="preserve"
         style="font-style:normal;font-variant:normal;font-weight:normal;font-stretch:normal;font-size:3.52778px;line-height:1.25;font-family:'Nimbus Roman';-inkscape-font-specification:'Nimbus Roman, ';letter-spacing:0px;word-spacing:0px;fill:#000000;stroke:none;stroke-width:0.264583"
         x="147.34564"
         y="32.421867"
         id="text41166"><tspan
           sodipodi:role="line"
           style="font-style:normal;font-variant:normal;font-weight:normal;font-stretch:normal;font-size:3.52778px;font-family:'Nimbus Roman';-inkscape-font-specification:'Nimbus Roman, ';fill:#000000;stroke:none;stroke-width:0.264583"
           x="147.34564"
           y="32.421867"
           id="tspan41160">- Groups</tspan><tspan
           sodipodi:role="line"
           style="font-style:normal;font-variant:normal;font-weight:normal;font-stretch:normal;font-size:3.52778px;font-family:'Nimbus Roman';-inkscape-font-specification:'Nimbus Roman, ';fill:#000000;stroke:none;stroke-width:0.264583"
           x="147.34564"
           y="36.831593"
           id="tspan41162">- Coset graphs</tspan><tspan
           sodipodi:role="line"
           style="font-style:normal;font-variant:normal;font-weight:normal;font-stretch:normal;font-size:3.52778px;font-family:'Nimbus Roman';-inkscape-font-specification:'Nimbus Roman, ';fill:#000000;stroke:none;stroke-width:0.264583"
           x="147.34564"
           y="41.241318"
           id="tspan41164">- Maniplexes</tspan></text>
    </g>
    <text
       xml:space="preserve"
       style="font-style:normal;font-variant:normal;font-weight:normal;font-stretch:normal;font-size:3.52778px;line-height:1.25;font-family:'Nimbus Roman';-inkscape-font-specification:'Nimbus Roman, ';text-align:center;letter-spacing:0px;word-spacing:0px;text-anchor:middle;fill:#000000;stroke:none;stroke-width:0.264583"
       x="101.11773"
       y="52.818569"
       id="text72839"><tspan
         sodipodi:role="line"
         style="font-style:normal;font-variant:normal;font-weight:normal;font-stretch:normal;font-size:3.52778px;font-family:'Nimbus Roman';-inkscape-font-specification:'Nimbus Roman, ';text-align:center;text-anchor:middle;fill:#000000;stroke:none;stroke-width:0.264583"
         x="101.11773"
         y="52.818569"
         id="tspan72833">Data management,</tspan><tspan
         sodipodi:role="line"
         style="font-style:normal;font-variant:normal;font-weight:normal;font-stretch:normal;font-size:3.52778px;font-family:'Nimbus Roman';-inkscape-font-specification:'Nimbus Roman, ';text-align:center;text-anchor:middle;fill:#000000;stroke:none;stroke-width:0.264583"
         x="101.11773"
         y="57.228294"
         id="tspan73937">Implementing algorithms</tspan><tspan
         sodipodi:role="line"
         style="font-style:normal;font-variant:normal;font-weight:normal;font-stretch:normal;font-size:3.52778px;font-family:'Nimbus Roman';-inkscape-font-specification:'Nimbus Roman, ';text-align:center;text-anchor:middle;fill:#000000;stroke:none;stroke-width:0.264583"
         x="101.11773"
         y="61.63802"
         id="tspan72835" /><tspan
         sodipodi:role="line"
         style="font-style:normal;font-variant:normal;font-weight:normal;font-stretch:normal;font-size:3.52778px;font-family:'Nimbus Roman';-inkscape-font-specification:'Nimbus Roman, ';text-align:center;text-anchor:middle;fill:#000000;stroke:none;stroke-width:0.264583"
         x="101.11773"
         y="66.047745"
         id="tspan72837" /></text>
  </g>
</svg>
